<svg width="8" height="8" viewBox="0 0 8 8" fill="none" xmlns="http://www.w3.org/2000/svg">
<path d="M3.99996 7.33342C2.15896 7.33342 0.666626 5.84108 0.666626 4.00008C0.666626 2.15908 2.15896 0.666748 3.99996 0.666748C5.84096 0.666748 7.33329 2.15908 7.33329 4.00008C7.33329 5.84108 5.84096 7.33342 3.99996 7.33342ZM3.29618 5.26774C3.42637 5.39792 3.63743 5.39792 3.76761 5.26772L5.65294 3.38212C5.78308 3.25197 5.78307 3.04096 5.65292 2.91081C5.52276 2.78065 5.31172 2.78066 5.18157 2.91083L3.5319 4.56079L2.82457 3.85346C2.69441 3.72331 2.48339 3.72331 2.35324 3.85346C2.22308 3.98362 2.22308 4.19464 2.35324 4.32479L3.29618 5.26774Z" fill="white"/>
</svg>
