<svg width="8" height="9" viewBox="0 0 8 9" fill="none" xmlns="http://www.w3.org/2000/svg">
<g clip-path="url(#clip0_3011_242815)">
<path d="M0.666016 1.831C0.666626 1.74346 0.701649 1.65967 0.76352 1.59774C0.825391 1.53581 0.909142 1.5007 0.996682 1.5H7.00202C7.18468 1.5 7.33268 1.64833 7.33268 1.831V7.169C7.33207 7.25654 7.29705 7.34033 7.23518 7.40226C7.17331 7.46419 7.08956 7.4993 7.00202 7.5H0.996682C0.908953 7.49991 0.824848 7.465 0.762845 7.40293C0.700843 7.34087 0.666016 7.25673 0.666016 7.169V1.831ZM3.54002 3.305C3.51995 3.29162 3.49664 3.28392 3.47255 3.28274C3.44846 3.28156 3.42451 3.28693 3.40323 3.29829C3.38196 3.30964 3.36416 3.32656 3.35174 3.34723C3.33931 3.3679 3.33273 3.39155 3.33268 3.41567V5.58433C3.33273 5.60845 3.33931 5.6321 3.35174 5.65277C3.36416 5.67344 3.38196 5.69036 3.40323 5.70171C3.42451 5.71307 3.44846 5.71844 3.47255 5.71726C3.49664 5.71608 3.51995 5.70838 3.54002 5.695L5.16635 4.611C5.18464 4.59883 5.19964 4.58233 5.21001 4.56296C5.22038 4.5436 5.22581 4.52197 5.22581 4.5C5.22581 4.47803 5.22038 4.4564 5.21001 4.43704C5.19964 4.41767 5.18464 4.40117 5.16635 4.389L3.53968 3.305H3.54002Z" fill="white"/>
</g>
<defs>
<clipPath id="clip0_3011_242815">
<rect width="8" height="8" fill="white" transform="translate(0 0.5)"/>
</clipPath>
</defs>
</svg>
